<?xml version="1.0" standalone="no"?>
<!DOCTYPE svg PUBLIC "-//W3C//DTD SVG 20010904//EN"
 "http://www.w3.org/TR/2001/REC-SVG-20010904/DTD/svg10.dtd">
<svg version="1.0" xmlns="http://www.w3.org/2000/svg"
 width="582.000000pt" height="526.000000pt" viewBox="0 0 582.000000 526.000000"
 preserveAspectRatio="xMidYMid meet">

<g transform="translate(0.000000,526.000000) scale(0.100000,-0.100000)"
fill="#000000" stroke="none">
<path d="M3625 4998 c-3 -12 -25 -229 -25 -256 0 -7 14 -12 33 -12 91 0 404
-89 475 -136 12 -8 22 -12 22 -10 0 3 27 -11 61 -30 33 -18 65 -34 70 -34 5 0
9 -3 9 -8 0 -4 13 -13 28 -20 106 -46 392 -311 487 -450 70 -102 83 -123 100
-157 9 -16 24 -43 33 -60 10 -16 30 -59 46 -95 15 -36 34 -78 41 -95 20 -45
61 -185 80 -275 1 -3 5 -30 9 -60 4 -30 10 -64 12 -75 3 -11 5 -93 6 -181 l1
-162 116 -12 c64 -6 123 -12 131 -13 28 -3 34 149 15 383 -5 60 -20 147 -37
215 -11 44 -22 89 -24 99 -6 30 -55 177 -72 216 -94 217 -163 331 -314 519
-91 115 -293 311 -319 311 -5 0 -9 4 -9 8 0 12 -115 90 -225 152 -130 74 -315
154 -415 180 -132 34 -162 41 -220 50 -36 6 -75 12 -88 15 -13 3 -24 0 -27 -7z"/>
<path d="M2530 4703 c-25 -2 -105 -12 -179 -24 -739 -115 -1376 -582 -1716
-1259 -325 -648 -325 -1422 1 -2072 110 -220 234 -394 407 -574 354 -369 792
-597 1312 -686 174 -29 521 -32 695 -5 685 107 1276 495 1640 1077 127 203
241 481 294 720 38 173 49 277 50 470 l1 175 -127 3 -128 3 0 -119 c0 -493
-159 -953 -457 -1322 -72 -89 -264 -277 -348 -341 -241 -184 -540 -322 -832
-383 -696 -145 -1396 65 -1895 571 -175 177 -276 320 -388 548 -204 417 -260
870 -163 1330 65 314 218 631 423 879 65 79 229 241 305 303 208 167 486 309
740 378 229 62 509 87 735 66 120 -12 333 -51 387 -72 l26 -10 -5 136 c-2 74
-7 137 -9 139 -11 11 -264 56 -369 65 -107 10 -295 12 -400 4z"/>
<path d="M3576 4458 c-7 -22 -25 -252 -20 -259 2 -4 28 -10 57 -14 125 -16
320 -94 447 -179 93 -62 253 -219 310 -306 72 -109 147 -271 164 -356 3 -10
10 -41 17 -69 6 -27 15 -113 18 -190 l6 -140 128 -14 c70 -7 130 -11 133 -9 2
3 5 59 5 125 0 136 -22 293 -55 391 -13 37 -23 69 -24 72 -1 5 -5 17 -22 65
-6 17 -11 30 -10 30 3 0 -74 144 -98 183 -50 80 -201 263 -256 310 -31 25 -56
50 -56 54 0 4 -7 8 -15 8 -8 0 -15 4 -15 9 0 10 -133 101 -148 101 -6 0 -12 4
-14 8 -5 14 -188 99 -268 125 -41 13 -111 32 -155 41 -44 9 -90 19 -103 22
-13 2 -24 -1 -26 -8z"/>
<path d="M3525 3898 c-2 -13 -8 -73 -12 -135 l-8 -111 39 -7 c61 -9 184 -62
241 -103 54 -38 139 -134 168 -187 45 -84 66 -161 74 -267 7 -89 -11 -78 152
-98 134 -16 123 -24 120 81 -5 216 -91 429 -238 584 -29 30 -56 55 -62 55 -5
0 -9 4 -9 10 0 12 -99 79 -169 115 -67 33 -119 53 -191 71 -80 19 -99 18 -105
-8z"/>
<path d="M2390 3542 c-30 -14 -40 -30 -72 -107 -21 -49 -37 -93 -38 -97 0 -5
189 -8 420 -8 l419 0 -25 68 c-64 170 -44 162 -396 162 -240 0 -277 -2 -308
-18z"/>
<path d="M1948 3206 c-8 -7 -72 -106 -143 -220 l-128 -206 -43 35 c-62 51
-102 65 -189 65 -85 0 -137 -17 -156 -51 -16 -32 -39 -118 -39 -152 0 -33 26
-83 49 -94 9 -4 67 -10 129 -13 l113 -5 -60 -95 -60 -95 -1 -412 c0 -361 2
-413 16 -427 13 -14 56 -16 315 -16 l299 0 0 73 c0 91 21 131 77 146 24 7 229
11 576 11 574 0 578 0 622 -50 15 -17 21 -40 24 -101 l3 -79 298 0 c275 0 298
1 313 18 15 17 17 61 17 423 l0 405 -60 97 c-33 54 -60 100 -60 102 0 3 58 5
130 5 145 0 170 7 196 55 16 30 16 41 5 101 -23 126 -55 154 -179 154 -105 0
-126 -7 -202 -71 l-69 -58 -88 140 c-48 77 -115 181 -148 232 l-60 92 -742 3
c-621 2 -744 0 -755 -12z m1394 -148 c9 -7 59 -83 112 -168 95 -153 111 -195
82 -219 -10 -8 -238 -10 -842 -9 l-828 3 -15 26 c-16 29 -20 22 156 297 l53
82 633 0 c491 0 637 -3 649 -12z m-1523 -811 l145 -42 34 -77 c39 -87 38 -124
-4 -134 -36 -9 -364 35 -391 52 -21 13 -23 22 -23 114 0 88 3 103 21 121 24
24 18 25 218 -34z m1965 42 c31 -14 36 -34 36 -136 0 -113 -3 -115 -163 -137
-266 -35 -287 -34 -287 21 0 27 45 139 65 161 6 6 80 32 165 56 85 25 156 45
157 45 1 1 13 -4 27 -10z m-638 -144 c19 -30 11 -63 -19 -70 -12 -3 -213 -4
-447 -3 l-425 3 -9 27 c-8 22 -6 32 9 48 18 19 29 20 446 20 l429 0 16 -25z
m-114 -152 c24 -21 23 -48 -2 -73 -19 -19 -33 -20 -328 -20 -262 0 -311 2
-330 16 -26 18 -28 50 -5 76 15 17 39 18 331 18 279 0 318 -2 334 -17z"/>
<path d="M2178 1628 c-10 -8 -18 -32 -20 -58 l-3 -45 543 -3 542 -2 0 43 c0
81 30 77 -541 77 -389 0 -509 -3 -521 -12z"/>
<path d="M1703 1412 l-233 -2 0 -51 c0 -28 7 -66 16 -84 26 -55 61 -65 226
-65 124 0 147 3 175 20 44 27 54 51 51 123 l-3 62 -232 -3z"/>
<path d="M3453 1344 c4 -57 9 -71 36 -98 l31 -31 158 -3 c170 -3 189 2 225 50
14 18 20 44 21 85 l1 58 -239 3 -239 2 6 -66z"/>
</g>
</svg>
